<?xml version="1.0" encoding="UTF-8"?>
<svg width="700pt" height="700pt" version="1.1" viewBox="0 0 700 700" xmlns="http://www.w3.org/2000/svg" xmlns:xlink="http://www.w3.org/1999/xlink">
 <defs>
  <symbol id="z" overflow="visible">
   <path d="m2.9375-0.17188c-0.15625 0.074219-0.32031 0.13281-0.48438 0.17188-0.15625 0.039062-0.32422 0.0625-0.5 0.0625-0.53125 0-0.95312-0.14453-1.2656-0.4375-0.3125-0.30078-0.46875-0.70703-0.46875-1.2188 0-0.50781 0.15625-0.91016 0.46875-1.2031 0.3125-0.30078 0.73438-0.45312 1.2656-0.45312 0.17578 0 0.34375 0.023438 0.5 0.0625 0.16406 0.042969 0.32812 0.10156 0.48438 0.17188v0.67188c-0.15625-0.10156-0.30859-0.17969-0.45312-0.23438-0.14844-0.050781-0.30469-0.078125-0.46875-0.078125-0.29297 0-0.52734 0.09375-0.70312 0.28125-0.16797 0.1875-0.25 0.44922-0.25 0.78125 0 0.33594 0.082031 0.59375 0.25 0.78125 0.17578 0.1875 0.41016 0.28125 0.70312 0.28125 0.16406 0 0.32031-0.019531 0.46875-0.0625 0.14453-0.050781 0.29688-0.12891 0.45312-0.23438z"/>
  </symbol>
  <symbol id="f" overflow="visible">
   <path d="m2.1406-1.7344c-0.0625-0.03125-0.13281-0.050781-0.20312-0.0625-0.0625-0.019531-0.125-0.03125-0.1875-0.03125-0.19922 0-0.35547 0.0625-0.46875 0.1875-0.10547 0.125-0.15625 0.30469-0.15625 0.53125v1.1094h-0.75v-2.3906h0.75v0.39062c0.10156-0.15625 0.21875-0.26953 0.34375-0.34375 0.125-0.070312 0.27344-0.10938 0.45312-0.10938 0.03125 0 0.0625 0.007813 0.09375 0.015625h0.125z"/>
  </symbol>
  <symbol id="b" overflow="visible">
   <path d="m2.75-1.2031v0.21875h-1.7812c0.019531 0.17969 0.082031 0.3125 0.1875 0.40625 0.11328 0.085937 0.26953 0.125 0.46875 0.125 0.16406 0 0.33203-0.019531 0.5-0.0625 0.16406-0.050781 0.33594-0.125 0.51562-0.21875v0.59375c-0.17969 0.0625-0.35938 0.10938-0.54688 0.14062-0.17969 0.039062-0.35547 0.0625-0.53125 0.0625-0.4375 0-0.77734-0.10938-1.0156-0.32812-0.24219-0.21875-0.35938-0.52344-0.35938-0.92188 0-0.39453 0.11328-0.70312 0.34375-0.92188 0.23828-0.22656 0.56641-0.34375 0.98438-0.34375 0.375 0 0.67188 0.11719 0.89062 0.34375 0.22656 0.23047 0.34375 0.53125 0.34375 0.90625zm-0.78125-0.25c0-0.14453-0.042969-0.25781-0.125-0.34375-0.085938-0.09375-0.19531-0.14062-0.32812-0.14062-0.15625 0-0.28125 0.042969-0.375 0.125-0.085937 0.085938-0.14062 0.20312-0.17188 0.35938z"/>
  </symbol>
  <symbol id="a" overflow="visible">
   <path d="m1.4375-1.0781c-0.15625 0-0.27734 0.027344-0.35938 0.078125-0.085937 0.054688-0.125 0.13672-0.125 0.25 0 0.09375 0.03125 0.16797 0.09375 0.21875 0.070313 0.054688 0.16406 0.078125 0.28125 0.078125 0.14453 0 0.26562-0.046875 0.35938-0.14062 0.10156-0.10156 0.15625-0.23438 0.15625-0.39062v-0.09375zm1.1719-0.28125v1.3594h-0.76562v-0.35938c-0.10547 0.14844-0.22656 0.25781-0.35938 0.32812-0.125 0.0625-0.28125 0.09375-0.46875 0.09375-0.24219 0-0.4375-0.070312-0.59375-0.21875-0.15625-0.14453-0.23438-0.33203-0.23438-0.5625 0-0.28125 0.09375-0.48438 0.28125-0.60938 0.19531-0.13281 0.50391-0.20312 0.92188-0.20312h0.45312v-0.0625c0-0.11328-0.054688-0.19531-0.15625-0.25-0.09375-0.0625-0.24219-0.09375-0.4375-0.09375-0.16797 0-0.32422 0.015625-0.46875 0.046875-0.13672 0.03125-0.26562 0.078125-0.39062 0.14062v-0.57812c0.16406-0.039063 0.33203-0.070313 0.5-0.09375 0.16406-0.019531 0.33203-0.03125 0.5-0.03125 0.42578 0 0.73438 0.089844 0.92188 0.26562 0.19531 0.16797 0.29688 0.44531 0.29688 0.82812z"/>
  </symbol>
  <symbol id="d" overflow="visible">
   <path d="m1.2031-3.0781v0.6875h0.78125v0.54688h-0.78125v1.0156c0 0.10547 0.019531 0.17969 0.0625 0.21875 0.039063 0.042969 0.12891 0.0625 0.26562 0.0625h0.39062v0.54688h-0.65625c-0.30469 0-0.51562-0.0625-0.64062-0.1875s-0.1875-0.33594-0.1875-0.64062v-1.0156h-0.375v-0.54688h0.375v-0.6875z"/>
  </symbol>
  <symbol id="h" overflow="visible">
   <path d="m2-2.0469v-1.2812h0.76562v3.3281h-0.76562v-0.34375c-0.10547 0.13672-0.22656 0.24219-0.35938 0.3125-0.125 0.0625-0.27344 0.09375-0.4375 0.09375-0.29297 0-0.53125-0.11328-0.71875-0.34375-0.1875-0.23828-0.28125-0.53906-0.28125-0.90625 0-0.375 0.09375-0.67578 0.28125-0.90625 0.1875-0.23828 0.42578-0.35938 0.71875-0.35938 0.16406 0 0.3125 0.039063 0.4375 0.10938 0.13281 0.0625 0.25391 0.16406 0.35938 0.29688zm-0.51562 1.5469c0.16406 0 0.28906-0.054688 0.375-0.17188 0.09375-0.125 0.14062-0.29688 0.14062-0.51562 0-0.22656-0.046875-0.39844-0.14062-0.51562-0.085937-0.125-0.21094-0.1875-0.375-0.1875-0.15625 0-0.28125 0.0625-0.375 0.1875-0.085937 0.11719-0.125 0.28906-0.125 0.51562 0 0.21875 0.039063 0.39062 0.125 0.51562 0.09375 0.11719 0.21875 0.17188 0.375 0.17188z"/>
  </symbol>
  <symbol id="n" overflow="visible">
   <path d="m1.6406-0.5c0.16406 0 0.28906-0.054688 0.375-0.17188 0.082031-0.125 0.125-0.29688 0.125-0.51562 0-0.22656-0.042969-0.39844-0.125-0.51562-0.085937-0.125-0.21094-0.1875-0.375-0.1875-0.16797 0-0.29688 0.0625-0.39062 0.1875-0.085938 0.11719-0.125 0.28906-0.125 0.51562 0 0.21875 0.039062 0.39062 0.125 0.51562 0.09375 0.11719 0.22266 0.17188 0.39062 0.17188zm-0.51562-1.5469c0.11328-0.13281 0.23438-0.23438 0.35938-0.29688 0.125-0.070312 0.26953-0.10938 0.4375-0.10938 0.28906 0 0.53125 0.12109 0.71875 0.35938 0.19531 0.23047 0.29688 0.53125 0.29688 0.90625 0 0.36719-0.10156 0.66797-0.29688 0.90625-0.1875 0.23047-0.42969 0.34375-0.71875 0.34375-0.16797 0-0.3125-0.03125-0.4375-0.09375-0.125-0.070312-0.24609-0.17578-0.35938-0.3125v0.34375h-0.75v-3.3281h0.75z"/>
  </symbol>
  <symbol id="m" overflow="visible">
   <path d="m0.046875-2.3906h0.76562l0.65625 1.625 0.54688-1.625h0.75l-1 2.6094c-0.10547 0.26953-0.22656 0.45703-0.35938 0.5625-0.125 0.10156-0.30469 0.15625-0.53125 0.15625h-0.4375v-0.5h0.23438c0.13281 0 0.22656-0.023438 0.28125-0.0625 0.0625-0.042969 0.10938-0.11719 0.14062-0.21875l0.03125-0.0625z"/>
  </symbol>
  <symbol id="l" overflow="visible">
   <path d="m0.40625-3.1875h1.0469l0.71875 1.7031 0.73438-1.7031h1.0469v3.1875h-0.78125v-2.3281l-0.73438 1.7188h-0.51562l-0.73438-1.7188v2.3281h-0.78125z"/>
  </symbol>
  <symbol id="k" overflow="visible">
   <path d="m0.34375-0.9375v-1.4531h0.76562v0.23438 0.5 0.39062c0 0.1875 0.003906 0.32422 0.015625 0.40625 0.007812 0.085937 0.023438 0.14844 0.046875 0.1875 0.03125 0.054687 0.070313 0.09375 0.125 0.125 0.050781 0.023437 0.10938 0.03125 0.17188 0.03125 0.15625 0 0.28125-0.0625 0.375-0.1875s0.14062-0.29688 0.14062-0.51562v-1.1719h0.76562v2.3906h-0.76562v-0.34375c-0.11719 0.13672-0.24219 0.24219-0.375 0.3125-0.125 0.0625-0.26562 0.09375-0.42188 0.09375-0.27344 0-0.48047-0.082031-0.625-0.25-0.14844-0.17578-0.21875-0.42578-0.21875-0.75z"/>
  </symbol>
  <symbol id="g" overflow="visible">
   <path d="m2.7656-1.4531v1.4531h-0.76562v-1.1094c0-0.20703-0.007812-0.34766-0.015625-0.42188-0.011719-0.082031-0.027344-0.14453-0.046875-0.1875-0.03125-0.050781-0.074219-0.085938-0.125-0.10938-0.042969-0.03125-0.10156-0.046875-0.17188-0.046875-0.15625 0-0.28125 0.0625-0.375 0.1875s-0.14062 0.29688-0.14062 0.51562v1.1719h-0.75v-3.3281h0.75v1.2812c0.125-0.13281 0.25-0.23438 0.375-0.29688 0.125-0.070312 0.26562-0.10938 0.42188-0.10938 0.28125 0 0.48828 0.089844 0.625 0.26562 0.14453 0.16797 0.21875 0.41406 0.21875 0.73438z"/>
  </symbol>
  <symbol id="c" overflow="visible">
   <path d="m2.5781-2c0.10156-0.14453 0.21875-0.25391 0.34375-0.32812 0.13281-0.082031 0.28516-0.125 0.45312-0.125 0.26953 0 0.47656 0.089844 0.625 0.26562 0.14453 0.16797 0.21875 0.41406 0.21875 0.73438v1.4531h-0.78125v-1.25c0.007812-0.019531 0.015625-0.035156 0.015625-0.046875v-0.09375c0-0.16406-0.027344-0.28516-0.078125-0.35938-0.054688-0.082031-0.13672-0.125-0.25-0.125-0.14844 0-0.26172 0.0625-0.34375 0.1875-0.074219 0.11719-0.10938 0.28906-0.10938 0.51562v1.1719h-0.76562v-1.25c0-0.25781-0.027344-0.42578-0.078125-0.5-0.042969-0.082031-0.12109-0.125-0.23438-0.125-0.14844 0-0.26172 0.0625-0.34375 0.1875-0.085938 0.11719-0.125 0.28906-0.125 0.51562v1.1719h-0.76562v-2.3906h0.76562v0.34375c0.09375-0.13281 0.20312-0.23438 0.32812-0.29688 0.125-0.070312 0.25781-0.10938 0.40625-0.10938 0.16406 0 0.3125 0.042969 0.4375 0.125 0.125 0.074219 0.21875 0.18359 0.28125 0.32812z"/>
  </symbol>
  <symbol id="y" overflow="visible">
   <path d="m0.40625-3.1875h2.2188v0.625h-1.4062v0.59375h1.3125v0.60938h-1.3125v1.3594h-0.8125z"/>
  </symbol>
  <symbol id="j" overflow="visible">
   <path d="m0.375-2.3906h0.75v2.3906h-0.75zm0-0.9375h0.75v0.625h-0.75z"/>
  </symbol>
  <symbol id="x" overflow="visible">
   <path d="m0.25-2.3906h2.0938v0.53125l-1.2656 1.3125h1.2656v0.54688h-2.1406v-0.53125l1.25-1.3125h-1.2031z"/>
  </symbol>
  <symbol id="w" overflow="visible">
   <path d="m0.375-3.3281h0.75v3.3281h-0.75z"/>
  </symbol>
  <symbol id="v" overflow="visible">
   <path d="m1.5625-1.7812c0.17578 0 0.30078-0.03125 0.375-0.09375 0.070312-0.0625 0.10938-0.16406 0.10938-0.3125 0-0.14453-0.039063-0.25-0.10938-0.3125-0.074219-0.0625-0.19922-0.09375-0.375-0.09375h-0.34375v0.8125zm-0.34375 0.57812v1.2031h-0.8125v-3.1875h1.25c0.41406 0 0.72266 0.074219 0.92188 0.21875 0.19531 0.13672 0.29688 0.35547 0.29688 0.65625 0 0.21094-0.054688 0.38281-0.15625 0.51562-0.10547 0.13672-0.25781 0.24219-0.45312 0.3125 0.11328 0.023437 0.21094 0.078125 0.29688 0.17188 0.09375 0.085938 0.17969 0.21875 0.26562 0.40625l0.45312 0.90625h-0.875l-0.39062-0.79688c-0.074219-0.15625-0.15234-0.25781-0.23438-0.3125-0.085938-0.0625-0.19531-0.09375-0.32812-0.09375z"/>
  </symbol>
  <symbol id="i" overflow="visible">
   <path d="m2.7656-1.4531v1.4531h-0.76562v-1.1094c0-0.20703-0.007812-0.34766-0.015625-0.42188-0.011719-0.082031-0.027344-0.14453-0.046875-0.1875-0.03125-0.050781-0.074219-0.085938-0.125-0.10938-0.042969-0.03125-0.10156-0.046875-0.17188-0.046875-0.15625 0-0.28125 0.0625-0.375 0.1875s-0.14062 0.29688-0.14062 0.51562v1.1719h-0.75v-2.3906h0.75v0.34375c0.125-0.13281 0.25-0.23438 0.375-0.29688 0.125-0.070312 0.26562-0.10938 0.42188-0.10938 0.28125 0 0.48828 0.089844 0.625 0.26562 0.14453 0.16797 0.21875 0.41406 0.21875 0.73438z"/>
  </symbol>
  <symbol id="u" overflow="visible">
   <path d="m0.40625-3.1875h0.8125v1.2188h1.2188v-1.2188h0.82812v3.1875h-0.82812v-1.3594h-1.2188v1.3594h-0.8125z"/>
  </symbol>
  <symbol id="t" overflow="visible">
   <path d="m0.375-3.3281h0.75v1.8125l0.89062-0.875h0.89062l-1.1719 1.0938 1.2656 1.2969h-0.9375l-0.9375-1v1h-0.75z"/>
  </symbol>
  <symbol id="s" overflow="visible">
   <path d="m1.9375-3.3281v0.5h-0.42188c-0.10547 0-0.17969 0.023437-0.21875 0.0625-0.042969 0.042969-0.0625 0.10938-0.0625 0.20312v0.17188h0.64062v0.54688h-0.64062v1.8438h-0.76562v-1.8438h-0.39062v-0.54688h0.39062v-0.17188c0-0.25781 0.070312-0.45312 0.21875-0.57812 0.14453-0.125 0.36719-0.1875 0.67188-0.1875z"/>
  </symbol>
  <symbol id="e" overflow="visible">
   <path d="m1.5-1.9062c-0.16797 0-0.29688 0.0625-0.39062 0.1875-0.085937 0.125-0.125 0.30469-0.125 0.53125 0 0.23047 0.039063 0.40625 0.125 0.53125 0.09375 0.11719 0.22266 0.17188 0.39062 0.17188 0.16406 0 0.28906-0.054687 0.375-0.17188 0.09375-0.125 0.14062-0.30078 0.14062-0.53125 0-0.22656-0.046875-0.40625-0.14062-0.53125-0.085938-0.125-0.21094-0.1875-0.375-0.1875zm0-0.54688c0.41406 0 0.73828 0.11719 0.96875 0.34375 0.22656 0.21875 0.34375 0.52734 0.34375 0.92188 0 0.38672-0.11719 0.69531-0.34375 0.92188-0.23047 0.21875-0.55469 0.32812-0.96875 0.32812-0.40625 0-0.73047-0.10938-0.96875-0.32812-0.23047-0.22656-0.34375-0.53516-0.34375-0.92188 0-0.39453 0.11328-0.70312 0.34375-0.92188 0.23828-0.22656 0.5625-0.34375 0.96875-0.34375z"/>
  </symbol>
  <symbol id="r" overflow="visible">
   <path d="m0.40625-3.1875h0.90625l1.1719 2.1875v-2.1875h0.78125v3.1875h-0.92188l-1.1562-2.1875v2.1875h-0.78125z"/>
  </symbol>
  <symbol id="q" overflow="visible">
   <path d="m0.40625-3.1875h1.3594c0.40625 0 0.71875 0.089844 0.9375 0.26562 0.21875 0.17969 0.32812 0.43359 0.32812 0.76562 0 0.34375-0.10938 0.60547-0.32812 0.78125-0.21875 0.17969-0.53125 0.26562-0.9375 0.26562h-0.54688v1.1094h-0.8125zm0.8125 0.59375v0.89062h0.45312c0.16406 0 0.28906-0.035156 0.375-0.10938 0.082031-0.082031 0.125-0.19531 0.125-0.34375 0-0.13281-0.042969-0.23828-0.125-0.3125-0.085937-0.082031-0.21094-0.125-0.375-0.125z"/>
  </symbol>
  <symbol id="p" overflow="visible">
   <path d="m0.375-2.3906h0.75v2.3438c0 0.32031-0.078125 0.56641-0.23438 0.73438-0.14844 0.16406-0.36719 0.25-0.65625 0.25h-0.375v-0.5h0.125c0.14453 0 0.24219-0.03125 0.29688-0.09375 0.0625-0.0625 0.09375-0.19531 0.09375-0.39062zm0-0.9375h0.75v0.625h-0.75z"/>
  </symbol>
  <symbol id="o" overflow="visible">
   <path d="m2.2969-2.3125v0.625c-0.10547-0.070312-0.21094-0.125-0.3125-0.15625-0.10547-0.039062-0.21484-0.0625-0.32812-0.0625-0.21094 0-0.375 0.0625-0.5 0.1875-0.11719 0.125-0.17188 0.30469-0.17188 0.53125 0 0.21875 0.054687 0.39062 0.17188 0.51562 0.125 0.125 0.28906 0.1875 0.5 0.1875 0.125 0 0.23828-0.015625 0.34375-0.046875 0.10156-0.039062 0.20312-0.097656 0.29688-0.17188v0.625c-0.11719 0.054688-0.23438 0.085938-0.35938 0.10938-0.125 0.019531-0.25 0.03125-0.375 0.03125-0.42969 0-0.76562-0.10938-1.0156-0.32812-0.24219-0.22656-0.35938-0.53516-0.35938-0.92188 0-0.39453 0.11719-0.70312 0.35938-0.92188 0.25-0.22656 0.58594-0.34375 1.0156-0.34375 0.125 0 0.25 0.011719 0.375 0.03125 0.125 0.023437 0.24219 0.058594 0.35938 0.10938z"/>
  </symbol>
 </defs>
 <g>
  <path d="m373.36 440.48-199.24-0.875c-3.4141 0-6.125-2.8008-6.125-6.125 0-3.4141 2.7109-6.125 6.125-6.125l199.24 0.875c55.211 0 105.26-30.539 130.55-79.711 1.5742-2.9766 5.25-4.1992 8.2266-2.625s4.1992 5.25 2.625 8.2266c-27.391 53.281-81.555 86.359-141.4 86.359z"/>
  <path d="m521.41 325.68c-0.52344 0-1.0508-0.085937-1.4883-0.17578-3.2383-0.875-5.25-4.1992-4.375-7.4375 3.0625-11.812 4.5508-24.062 4.5508-36.488 0-3.4141 2.7109-6.125 6.125-6.125 3.4141 0 6.125 2.7109 6.125 6.125 0 13.387-1.6641 26.688-4.9883 39.461-0.78906 2.8008-3.2383 4.6406-5.9492 4.6406z"/>
  <path d="m368.2 382.64c-4.2891 0-8.6641-0.26172-12.949-0.78906-21.523-2.7109-41.914-12.773-57.574-28.352-15.664-15.574-25.637-36.051-28.352-57.574-3.5859-28.613 5.1641-57.398 24.062-78.836 18.988-21.523 46.199-33.773 74.812-33.773 4.2891 0 8.6641 0.26172 12.949 0.78906 21.523 2.7109 41.914 12.773 57.574 28.352 15.574 15.574 25.637 36.051 28.352 57.574 3.5859 28.613-5.1641 57.398-24.062 78.836-18.988 21.438-46.199 33.773-74.812 33.773zm0-187.07c-25.113 0-49 10.762-65.625 29.664-16.801 19.074-24.324 43.664-21.086 69.211 4.8984 38.762 36.574 70.438 75.336 75.336 3.7617 0.4375 7.6133 0.69922 11.375 0.69922 25.113 0 49-10.762 65.625-29.664 16.801-19.074 24.324-43.664 21.086-69.211-4.8984-38.762-36.574-70.438-75.336-75.336-3.7617-0.52344-7.6133-0.69922-11.375-0.69922z"/>
  <path d="m330.49 374.5c-50.488 0-91.613-41.125-91.613-91.613s41.125-91.613 91.613-91.613c3.4141 0 6.125 2.7109 6.125 6.125 0 3.4141-2.7109 6.125-6.125 6.125-43.75 0-79.363 35.613-79.363 79.363s35.613 79.363 79.363 79.363c3.4141 0 6.125 2.7109 6.125 6.125s-2.8008 6.125-6.125 6.125z"/>
  <path d="m332.85 327.25c-1.5742 0-3.1484-0.61328-4.2891-1.75-10.414-10.414-16.188-24.238-16.188-39.023 0-14.699 5.7734-28.613 16.188-39.023 2.3633-2.3633 6.3008-2.3633 8.6641 0 2.3633 2.3633 2.3633 6.3008 0 8.6641-8.1367 8.1367-12.602 18.898-12.602 30.363 0 11.461 4.4609 22.227 12.602 30.363 2.3633 2.3633 2.3633 6.3008 0 8.6641-1.2266 1.1289-2.8008 1.7422-4.375 1.7422z"/>
  <path d="m221.81 487.29c-1.5742 0-3.1484-0.61328-4.2891-1.75l-47.688-47.688c-2.3633-2.3633-2.3633-6.3008 0-8.6641l45.852-45.852c2.3633-2.3633 6.3008-2.3633 8.6641 0 2.3633 2.3633 2.3633 6.3008 0 8.6641l-41.562 41.562 43.312 43.312c2.3633 2.3633 2.3633 6.3008 0 8.6641-1.1406 1.1367-2.7148 1.75-4.2891 1.75z"/>
  <path d="m189.61 216.82c-0.96094 0-1.9258-0.17578-2.8008-0.69922-2.9766-1.5742-4.1992-5.25-2.625-8.2266 27.387-53.289 81.551-86.363 141.4-86.363l199.24 0.875c3.4141 0 6.125 2.8008 6.125 6.125 0 3.4141-2.8008 6.125-6.125 6.125l-199.24-0.875c-55.211 0-105.26 30.539-130.55 79.711-1.0469 2.1055-3.1484 3.3281-5.4219 3.3281z"/>
  <path d="m478.98 180.51c-1.5742 0-3.1484-0.61328-4.375-1.8359-2.3633-2.3633-2.3633-6.3008 0-8.6641l41.562-41.562-43.312-43.312c-2.3633-2.3633-2.3633-6.3008 0-8.6641 2.3633-2.3633 6.3008-2.3633 8.6641 0l47.688 47.688c1.1367 1.1367 1.75 2.7109 1.75 4.2891 0 1.5742-0.61328 3.1484-1.8359 4.2891l-45.852 45.852c-1.1406 1.3086-2.7148 1.9219-4.2891 1.9219z"/>
  <use x="70" y="573.125" xlink:href="#z"/>
  <use x="73.210938" y="573.125" xlink:href="#f"/>
  <use x="75.367188" y="573.125" xlink:href="#b"/>
  <use x="78.335938" y="573.125" xlink:href="#a"/>
  <use x="81.289062" y="573.125" xlink:href="#d"/>
  <use x="83.378906" y="573.125" xlink:href="#b"/>
  <use x="86.347656" y="573.125" xlink:href="#h"/>
  <use x="91" y="573.125" xlink:href="#n"/>
  <use x="94.132812" y="573.125" xlink:href="#m"/>
  <use x="98.507812" y="573.125" xlink:href="#l"/>
  <use x="102.863281" y="573.125" xlink:href="#k"/>
  <use x="105.976562" y="573.125" xlink:href="#g"/>
  <use x="109.089844" y="573.125" xlink:href="#a"/>
  <use x="112.042969" y="573.125" xlink:href="#c"/>
  <use x="116.601562" y="573.125" xlink:href="#a"/>
  <use x="119.554687" y="573.125" xlink:href="#h"/>
  <use x="124.210938" y="573.125" xlink:href="#y"/>
  <use x="127.199219" y="573.125" xlink:href="#a"/>
  <use x="130.148438" y="573.125" xlink:href="#j"/>
  <use x="131.648438" y="573.125" xlink:href="#x"/>
  <use x="134.195312" y="573.125" xlink:href="#a"/>
  <use x="137.148438" y="573.125" xlink:href="#w"/>
  <use x="140.171875" y="573.125" xlink:href="#v"/>
  <use x="143.539062" y="573.125" xlink:href="#a"/>
  <use x="146.492188" y="573.125" xlink:href="#g"/>
  <use x="149.605469" y="573.125" xlink:href="#c"/>
  <use x="154.164062" y="573.125" xlink:href="#a"/>
  <use x="157.117188" y="573.125" xlink:href="#i"/>
  <use x="161.753906" y="573.125" xlink:href="#u"/>
  <use x="165.417969" y="573.125" xlink:href="#a"/>
  <use x="168.367187" y="573.125" xlink:href="#t"/>
  <use x="171.277344" y="573.125" xlink:href="#j"/>
  <use x="172.777344" y="573.125" xlink:href="#c"/>
  <use x="70" y="577.5" xlink:href="#s"/>
  <use x="71.902344" y="577.5" xlink:href="#f"/>
  <use x="74.0625" y="577.5" xlink:href="#e"/>
  <use x="77.066406" y="577.5" xlink:href="#c"/>
  <use x="83.148438" y="577.5" xlink:href="#d"/>
  <use x="85.238281" y="577.5" xlink:href="#g"/>
  <use x="88.355469" y="577.5" xlink:href="#b"/>
  <use x="92.84375" y="577.5" xlink:href="#r"/>
  <use x="96.507812" y="577.5" xlink:href="#e"/>
  <use x="99.511719" y="577.5" xlink:href="#k"/>
  <use x="102.625" y="577.5" xlink:href="#i"/>
  <use x="107.265625" y="577.5" xlink:href="#q"/>
  <use x="110.472656" y="577.5" xlink:href="#f"/>
  <use x="112.628906" y="577.5" xlink:href="#e"/>
  <use x="115.632812" y="577.5" xlink:href="#p"/>
  <use x="117.132812" y="577.5" xlink:href="#b"/>
  <use x="120.101562" y="577.5" xlink:href="#o"/>
  <use x="122.695312" y="577.5" xlink:href="#d"/>
 </g>
</svg>
