<?xml version="1.0" encoding="UTF-8"?>
<svg width="752pt" height="752pt" version="1.1" viewBox="0 0 752 752" xmlns="http://www.w3.org/2000/svg">
 <g fill="#676767">
  <path d="m372.03 523.45-5.1289 2.5664-150.73-66.992v-175.91l147.34 65.484c2.2969 1.0234 4.9219 1.0234 7.2188 0l147.34-65.484v75.133c0 4.9023 3.9766 8.8789 8.8828 8.8789 4.9023 0 8.8789-3.9766 8.8789-8.8789v-88.797c0-3.5078-2.0664-6.6875-5.2734-8.1133l-159.83-71.039v0.003906c-2.2969-1.0234-4.9219-1.0234-7.2188 0l-159.83 71.039v-0.003907c-3.207 1.4258-5.2695 4.6055-5.2695 8.1133v195.35c0 3.5078 2.0625 6.6875 5.2695 8.1133l159.83 71.039c2.4258 1.0781 5.207 1.0156 7.5781-0.17188l8.8789-4.4375c4.2812-2.25 5.9766-7.5117 3.8125-11.84-2.1641-4.3242-7.3906-6.125-11.758-4.0508zm-4.9062-192.68-62.824-27.941 137.47-61.094c0.15625-0.070313 0.28906-0.17578 0.44141-0.25391l62.883 27.941zm0-122.66 53.281 23.68-136.8 60.82c-0.35547 0.16797-0.69531 0.36328-1.0195 0.58203l-53.426-23.746z"/>
  <path d="m464.8 367.12c-23.551 0-46.137 9.3555-62.789 26.008-16.652 16.652-26.008 39.238-26.008 62.789s9.3555 46.137 26.008 62.789c16.652 16.652 39.238 26.008 62.789 26.008s46.137-9.3555 62.789-26.008c16.652-16.652 26.008-39.238 26.008-62.789-0.027344-23.543-9.3906-46.113-26.035-62.758-16.648-16.648-39.219-26.012-62.762-26.039zm0 159.83v0.003906c-18.84 0-36.906-7.4844-50.23-20.809-13.32-13.32-20.805-31.391-20.805-50.23 0-18.84 7.4844-36.91 20.805-50.23 13.324-13.32 31.391-20.805 50.23-20.805s36.91 7.4844 50.23 20.805c13.324 13.32 20.809 31.391 20.809 50.23-0.023438 18.832-7.5117 36.891-20.832 50.207-13.316 13.316-31.371 20.809-50.207 20.832z"/>
  <path d="m494.04 431.88-38.117 38.125-15.922-15.922c-3.4883-3.3359-9.0039-3.2773-12.418 0.13672-3.4141 3.4141-3.4727 8.9297-0.13672 12.418l22.195 22.203v-0.003906c3.4727 3.4688 9.0938 3.4688 12.562 0l44.398-44.398c3.4648-3.4648 3.4648-9.0898 0-12.559-3.4688-3.4688-9.0938-3.4688-12.562 0z"/>
 </g>
</svg>
